<svg xmlns="http://www.w3.org/2000/svg" width="48.001" height="48.001" viewBox="0 0 48.001 48.001">
  <g id="architecture" opacity="0.2">
    <path id="Path_4" data-name="Path 4" d="M188.969,3.073h-6.328V0h-2.813V3.073H173.5V6.48h15.469Z" transform="translate(-157.234)"/>
    <path id="Path_5" data-name="Path 5" d="M48,134.106H45.563v-32.36H36.979v5.682h4.139v2.813H36.979v2.813h4.139v2.813H36.979v2.813h4.139v2.813H36.979V124.3h4.139v2.813H36.979v6.989H34.261V98.116H13.74v35.99H11.022v-6.989H6.947V124.3h4.075v-2.813H6.947v-2.813h4.075v-2.813H6.947v-2.813h4.075V110.24H6.947v-2.813h4.075v-5.682H2.438v32.36H0v2.813H48ZM28.641,107.46v2.813h-3V107.46Zm-3-2.813v-2.813h3v2.813Zm3,8.438V115.9h-3v-2.813Zm0,5.625v2.813h-3V118.71Zm0,5.625v2.813h-3v-2.813Zm-9.281-2.813V118.71h3v2.813Zm3,2.813v2.813h-3v-2.813Zm-3-8.438v-2.813h3V115.9Zm0-5.625V107.46h3v2.813Zm0-5.625v-2.813h3v2.813Zm3.234,25.219h2.813v4.239H22.594Z" transform="translate(0 -88.917)"/>
  </g>
</svg>
