<svg xmlns="http://www.w3.org/2000/svg" width="47.148" height="47.148" viewBox="0 0 47.148 47.148">
  <g id="architecture" opacity="0.2">
    <path id="Path_4" data-name="Path 4" d="M188.694,3.019h-6.216V0h-2.763V3.019H173.5V6.365h15.194Z" transform="translate(-157.523)"/>
    <path id="Path_5" data-name="Path 5" d="M47.148,133.467H44.754V101.681H36.323v5.581h4.065v2.763H36.323v2.763h4.065v2.763H36.323v2.763h4.065v2.763H36.323v2.763h4.065V126.6H36.323v6.865H33.652V98.116H13.5v35.351H10.826V126.6h-4v-2.763h4v-2.763h-4v-2.763h4v-2.763h-4v-2.763h4v-2.763h-4v-2.763h4v-5.581H2.394v31.786H0v2.763H47.148ZM28.133,107.294v2.763H25.186v-2.763Zm-2.947-2.763v-2.763h2.947v2.763Zm2.947,8.288v2.763H25.186v-2.763Zm0,5.525v2.763H25.186v-2.763Zm0,5.525v2.763H25.186v-2.763Zm-9.117-2.763v-2.763h2.947v2.763Zm2.947,2.763v2.763H19.016v-2.763Zm-2.947-8.288v-2.763h2.947v2.763Zm0-5.525v-2.763h2.947v2.763Zm0-5.525v-2.763h2.947v2.763ZM22.193,129.3h2.763v4.164H22.193Z" transform="translate(0 -89.081)"/>
  </g>
</svg>
