<svg xmlns="http://www.w3.org/2000/svg" width="94.477" height="23.269" viewBox="0 0 94.477 23.269">
  <g id="DRJOB_logo" data-name="DRJOB logo" transform="translate(-214.99 -731.46)">
    <path id="Path_49035" data-name="Path 49035" d="M1142.274,828.24a9.7,9.7,0,0,0-5.794,17.487,8.023,8.023,0,0,1,11.587,0,9.7,9.7,0,0,0-5.793-17.487Zm0,13.556a3.852,3.852,0,1,1,3.852-3.852A3.853,3.853,0,0,1,1142.274,841.8Z" transform="translate(-862.776 -91)" fill="#009eff"/>
    <circle id="Ellipse_559" data-name="Ellipse 559" cx="1.559" cy="1.559" r="1.559" transform="translate(246.253 751.609)" fill="#424242"/>
    <path id="Path_49036" data-name="Path 49036" d="M825.387,739.031v14.112c0,.1,0,.2,0,.3a8.7,8.7,0,0,1-17.4-.3c0-.06,0-.121,0-.182,0-.15.01-.3.021-.448a2.632,2.632,0,0,1,5.237.339v0c-.007.078-.011.157-.011.237,0,.017,0,.034,0,.051a3.455,3.455,0,0,0,6.9.228c0-.075.008-.151.008-.227s0-.152-.008-.227v-8.637h-3.447V739.03h8.7Z" transform="translate(-557.573 -7.118)" fill="#424242"/>
    <g id="Group_15631" data-name="Group 15631" transform="translate(214.99 732.016)">
      <path id="Path_49037" data-name="Path 49037" d="M234.393,746.124a9.8,9.8,0,0,0-3.979-3.959,12.124,12.124,0,0,0-5.881-1.4H214.99v22.712h9.543a12.11,12.11,0,0,0,5.881-1.4,9.8,9.8,0,0,0,3.979-3.958,13.456,13.456,0,0,0,0-12ZM228.469,756.7a5.479,5.479,0,0,1-4.167,1.654h-3.6V745.9h3.6a5.479,5.479,0,0,1,4.167,1.655,7.447,7.447,0,0,1,0,9.15Z" transform="translate(-214.99 -740.77)" fill="#424242"/>
    </g>
    <path id="Path_49038" data-name="Path 49038" d="M1483.271,736.868a8.685,8.685,0,0,0-3.455.713v-6.12h-5.249v14.112c0,.052,0,.1,0,.155v.007c0,.054,0,.108,0,.161h-.006v-.112c-.115,4.132-1.956,6.015-1.956,6.015l4.347,2.931c.6-.08,1.356-2,1.356-2a8.7,8.7,0,1,0,4.957-15.86Zm0,12.159a3.455,3.455,0,1,1,3.456-3.456A3.455,3.455,0,0,1,1483.271,749.027Z" transform="translate(-1182.506)" fill="#424242"/>
    <path id="Path_49039" data-name="Path 49039" d="M584.72,829.207a6.332,6.332,0,0,1,.621.921,6.524,6.524,0,0,1,.784,2.649q.021,5.694.042,11.389h4.815c.011-1.4.051-6.31.11-8.34a3.632,3.632,0,0,1,.056-.547,4.084,4.084,0,0,1,2.1-2.913,3.8,3.8,0,0,1,2.773-.116l.762-4.8s-4.3-1.58-6.129,3.711c0,0-.628-3.483-2.093-4.587Z" transform="translate(-347.647 -89.439)" fill="#424242"/>
  </g>
</svg>
