<svg xmlns="http://www.w3.org/2000/svg" width="12.888" height="12.296" viewBox="0 0 12.888 12.296">
  <path id="star-svgrepo-com" d="M12.869,10.256a.4.4,0,0,0-.321-.27L8.576,9.408,6.8,5.809a.4.4,0,0,0-.713,0l-1.776,3.6L.34,9.986a.4.4,0,0,0-.22.678l2.874,2.8L2.315,17.42a.4.4,0,0,0,.576.419l3.552-1.867L10,17.839a.4.4,0,0,0,.185.046h0a.4.4,0,0,0,.385-.494l-.673-3.926,2.874-2.8A.4.4,0,0,0,12.869,10.256ZM9.19,13.041a.4.4,0,0,0-.114.352l.578,3.368-3.025-1.59a.4.4,0,0,0-.37,0l-3.025,1.59.578-3.368a.4.4,0,0,0-.114-.352L1.251,10.656l3.382-.492a.4.4,0,0,0,.3-.217L6.444,6.883,7.956,9.947a.4.4,0,0,0,.3.217l3.382.492Z" transform="translate(0 -5.588)" fill="#156bf5"/>
</svg>
